<mxfile host="app.diagrams.net" modified="2022-07-16T10:56:15.897Z" agent="5.0 (Macintosh; Intel Mac OS X 10_15_7) AppleWebKit/537.36 (KHTML, like Gecko) Chrome/103.0.0.0 Safari/537.36" etag="9tWeqq1OiMyxOcDi7Syy" version="20.0.4" type="github">
  <diagram id="2rhtGO0KNUIndY7hLYg8" name="第 1 页">
    <mxGraphModel dx="946" dy="614" grid="1" gridSize="10" guides="1" tooltips="1" connect="1" arrows="1" fold="1" page="1" pageScale="1" pageWidth="827" pageHeight="1169" math="0" shadow="0">
      <root>
        <mxCell id="0" />
        <mxCell id="1" parent="0" />
        <mxCell id="PB4s2rMyjTqHhm2q_QeH-7" style="edgeStyle=orthogonalEdgeStyle;rounded=0;orthogonalLoop=1;jettySize=auto;html=1;exitX=0.5;exitY=1;exitDx=0;exitDy=0;entryX=0;entryY=0.5;entryDx=0;entryDy=0;" edge="1" parent="1" source="PB4s2rMyjTqHhm2q_QeH-1" target="PB4s2rMyjTqHhm2q_QeH-6">
          <mxGeometry relative="1" as="geometry" />
        </mxCell>
        <mxCell id="PB4s2rMyjTqHhm2q_QeH-8" value="偏向锁已启动" style="edgeLabel;html=1;align=center;verticalAlign=middle;resizable=0;points=[];" vertex="1" connectable="0" parent="PB4s2rMyjTqHhm2q_QeH-7">
          <mxGeometry x="-0.4286" y="-2" relative="1" as="geometry">
            <mxPoint as="offset" />
          </mxGeometry>
        </mxCell>
        <mxCell id="PB4s2rMyjTqHhm2q_QeH-11" style="edgeStyle=orthogonalEdgeStyle;rounded=0;orthogonalLoop=1;jettySize=auto;html=1;exitX=0.5;exitY=0;exitDx=0;exitDy=0;entryX=0;entryY=0.5;entryDx=0;entryDy=0;" edge="1" parent="1" source="PB4s2rMyjTqHhm2q_QeH-1" target="PB4s2rMyjTqHhm2q_QeH-4">
          <mxGeometry relative="1" as="geometry" />
        </mxCell>
        <mxCell id="PB4s2rMyjTqHhm2q_QeH-12" value="偏向锁未启动" style="edgeLabel;html=1;align=center;verticalAlign=middle;resizable=0;points=[];" vertex="1" connectable="0" parent="PB4s2rMyjTqHhm2q_QeH-11">
          <mxGeometry x="-0.3733" y="2" relative="1" as="geometry">
            <mxPoint as="offset" />
          </mxGeometry>
        </mxCell>
        <mxCell id="PB4s2rMyjTqHhm2q_QeH-1" value="NEW" style="ellipse;whiteSpace=wrap;html=1;aspect=fixed;fillColor=#ffe6cc;strokeColor=#d79b00;" vertex="1" parent="1">
          <mxGeometry x="60" y="220" width="60" height="60" as="geometry" />
        </mxCell>
        <mxCell id="PB4s2rMyjTqHhm2q_QeH-16" style="edgeStyle=orthogonalEdgeStyle;rounded=0;orthogonalLoop=1;jettySize=auto;html=1;exitX=1;exitY=0.5;exitDx=0;exitDy=0;entryX=0;entryY=0.5;entryDx=0;entryDy=0;" edge="1" parent="1" source="PB4s2rMyjTqHhm2q_QeH-4" target="PB4s2rMyjTqHhm2q_QeH-14">
          <mxGeometry relative="1" as="geometry" />
        </mxCell>
        <mxCell id="PB4s2rMyjTqHhm2q_QeH-17" value="偏向锁未启动" style="edgeLabel;html=1;align=center;verticalAlign=middle;resizable=0;points=[];" vertex="1" connectable="0" parent="PB4s2rMyjTqHhm2q_QeH-16">
          <mxGeometry x="-0.1143" y="-1" relative="1" as="geometry">
            <mxPoint x="-3" y="-11" as="offset" />
          </mxGeometry>
        </mxCell>
        <mxCell id="PB4s2rMyjTqHhm2q_QeH-18" style="edgeStyle=orthogonalEdgeStyle;rounded=0;orthogonalLoop=1;jettySize=auto;html=1;exitX=0.5;exitY=1;exitDx=0;exitDy=0;entryX=0;entryY=0.5;entryDx=0;entryDy=0;" edge="1" parent="1" source="PB4s2rMyjTqHhm2q_QeH-4" target="PB4s2rMyjTqHhm2q_QeH-13">
          <mxGeometry relative="1" as="geometry" />
        </mxCell>
        <mxCell id="PB4s2rMyjTqHhm2q_QeH-20" value="Text" style="edgeLabel;html=1;align=center;verticalAlign=middle;resizable=0;points=[];" vertex="1" connectable="0" parent="PB4s2rMyjTqHhm2q_QeH-18">
          <mxGeometry x="-0.7125" relative="1" as="geometry">
            <mxPoint as="offset" />
          </mxGeometry>
        </mxCell>
        <mxCell id="PB4s2rMyjTqHhm2q_QeH-4" value="普通对象" style="rounded=1;whiteSpace=wrap;html=1;" vertex="1" parent="1">
          <mxGeometry x="170" y="130" width="80" height="40" as="geometry" />
        </mxCell>
        <mxCell id="PB4s2rMyjTqHhm2q_QeH-19" style="edgeStyle=orthogonalEdgeStyle;rounded=0;orthogonalLoop=1;jettySize=auto;html=1;exitX=0.5;exitY=0;exitDx=0;exitDy=0;" edge="1" parent="1" source="PB4s2rMyjTqHhm2q_QeH-6">
          <mxGeometry relative="1" as="geometry">
            <mxPoint x="300" y="240" as="targetPoint" />
            <Array as="points">
              <mxPoint x="210" y="240" />
            </Array>
          </mxGeometry>
        </mxCell>
        <mxCell id="PB4s2rMyjTqHhm2q_QeH-6" value="匿名偏向" style="rounded=1;whiteSpace=wrap;html=1;fillColor=#dae8fc;strokeColor=#6c8ebf;" vertex="1" parent="1">
          <mxGeometry x="170" y="320" width="80" height="40" as="geometry" />
        </mxCell>
        <mxCell id="PB4s2rMyjTqHhm2q_QeH-21" value="轻度竞争" style="edgeStyle=orthogonalEdgeStyle;rounded=0;orthogonalLoop=1;jettySize=auto;html=1;exitX=1;exitY=0.5;exitDx=0;exitDy=0;" edge="1" parent="1" source="PB4s2rMyjTqHhm2q_QeH-13" target="PB4s2rMyjTqHhm2q_QeH-14">
          <mxGeometry x="-0.2632" y="-10" relative="1" as="geometry">
            <mxPoint as="offset" />
          </mxGeometry>
        </mxCell>
        <mxCell id="PB4s2rMyjTqHhm2q_QeH-22" style="edgeStyle=orthogonalEdgeStyle;rounded=0;orthogonalLoop=1;jettySize=auto;html=1;exitX=0.5;exitY=1;exitDx=0;exitDy=0;entryX=0;entryY=0.5;entryDx=0;entryDy=0;" edge="1" parent="1" source="PB4s2rMyjTqHhm2q_QeH-13" target="PB4s2rMyjTqHhm2q_QeH-15">
          <mxGeometry relative="1" as="geometry" />
        </mxCell>
        <mxCell id="PB4s2rMyjTqHhm2q_QeH-23" value="重度竞争:耗时过长,wait等待" style="edgeLabel;html=1;align=center;verticalAlign=middle;resizable=0;points=[];" vertex="1" connectable="0" parent="PB4s2rMyjTqHhm2q_QeH-22">
          <mxGeometry x="-0.73" y="1" relative="1" as="geometry">
            <mxPoint x="-1" y="13" as="offset" />
          </mxGeometry>
        </mxCell>
        <mxCell id="PB4s2rMyjTqHhm2q_QeH-13" value="偏向锁" style="rounded=1;whiteSpace=wrap;html=1;fillColor=#dae8fc;strokeColor=#6c8ebf;" vertex="1" parent="1">
          <mxGeometry x="300" y="220" width="80" height="40" as="geometry" />
        </mxCell>
        <mxCell id="PB4s2rMyjTqHhm2q_QeH-24" style="edgeStyle=orthogonalEdgeStyle;rounded=0;orthogonalLoop=1;jettySize=auto;html=1;exitX=1;exitY=0.5;exitDx=0;exitDy=0;entryX=1;entryY=0.75;entryDx=0;entryDy=0;" edge="1" parent="1" source="PB4s2rMyjTqHhm2q_QeH-14" target="PB4s2rMyjTqHhm2q_QeH-15">
          <mxGeometry relative="1" as="geometry" />
        </mxCell>
        <mxCell id="PB4s2rMyjTqHhm2q_QeH-14" value="轻量级锁" style="rounded=1;whiteSpace=wrap;html=1;fillColor=#d5e8d4;strokeColor=#82b366;" vertex="1" parent="1">
          <mxGeometry x="460" y="130" width="80" height="40" as="geometry" />
        </mxCell>
        <mxCell id="PB4s2rMyjTqHhm2q_QeH-15" value="重量级锁" style="rounded=1;whiteSpace=wrap;html=1;fillColor=#f8cecc;strokeColor=#b85450;" vertex="1" parent="1">
          <mxGeometry x="460" y="320" width="80" height="40" as="geometry" />
        </mxCell>
        <mxCell id="PB4s2rMyjTqHhm2q_QeH-25" value="多线程进入同步块时间错开，未造成锁竞争" style="text;html=1;align=center;verticalAlign=middle;resizable=0;points=[];autosize=1;strokeColor=none;fillColor=none;" vertex="1" parent="1">
          <mxGeometry x="345" y="95" width="250" height="30" as="geometry" />
        </mxCell>
        <mxCell id="PB4s2rMyjTqHhm2q_QeH-26" value="多线程同时进入同步块，造成锁的竞争，&lt;br&gt;避免CPU空转，Monitor(Mutex Lock)将运行级别从用户态切换为内核态" style="text;html=1;align=center;verticalAlign=middle;resizable=0;points=[];autosize=1;strokeColor=none;fillColor=none;" vertex="1" parent="1">
          <mxGeometry x="270" y="370" width="400" height="40" as="geometry" />
        </mxCell>
        <mxCell id="PB4s2rMyjTqHhm2q_QeH-32" style="edgeStyle=orthogonalEdgeStyle;rounded=0;orthogonalLoop=1;jettySize=auto;html=1;exitX=1;exitY=0.5;exitDx=0;exitDy=0;entryX=0;entryY=0.5;entryDx=0;entryDy=0;" edge="1" parent="1" source="PB4s2rMyjTqHhm2q_QeH-28" target="PB4s2rMyjTqHhm2q_QeH-29">
          <mxGeometry relative="1" as="geometry" />
        </mxCell>
        <mxCell id="PB4s2rMyjTqHhm2q_QeH-28" value="匿名偏向(101)" style="rounded=1;whiteSpace=wrap;html=1;fillColor=#dae8fc;strokeColor=#6c8ebf;" vertex="1" parent="1">
          <mxGeometry x="50" y="480" width="80" height="40" as="geometry" />
        </mxCell>
        <mxCell id="PB4s2rMyjTqHhm2q_QeH-33" style="edgeStyle=orthogonalEdgeStyle;rounded=0;orthogonalLoop=1;jettySize=auto;html=1;exitX=1;exitY=0.5;exitDx=0;exitDy=0;entryX=0;entryY=0.5;entryDx=0;entryDy=0;" edge="1" parent="1" source="PB4s2rMyjTqHhm2q_QeH-29" target="PB4s2rMyjTqHhm2q_QeH-30">
          <mxGeometry relative="1" as="geometry" />
        </mxCell>
        <mxCell id="PB4s2rMyjTqHhm2q_QeH-29" value="偏向锁(101)" style="rounded=1;whiteSpace=wrap;html=1;fillColor=#dae8fc;strokeColor=#6c8ebf;" vertex="1" parent="1">
          <mxGeometry x="190" y="480" width="80" height="40" as="geometry" />
        </mxCell>
        <mxCell id="PB4s2rMyjTqHhm2q_QeH-34" style="edgeStyle=orthogonalEdgeStyle;rounded=0;orthogonalLoop=1;jettySize=auto;html=1;exitX=1;exitY=0.5;exitDx=0;exitDy=0;entryX=0;entryY=0.5;entryDx=0;entryDy=0;" edge="1" parent="1" source="PB4s2rMyjTqHhm2q_QeH-30" target="PB4s2rMyjTqHhm2q_QeH-31">
          <mxGeometry relative="1" as="geometry" />
        </mxCell>
        <mxCell id="PB4s2rMyjTqHhm2q_QeH-30" value="轻量级锁(000)" style="rounded=1;whiteSpace=wrap;html=1;fillColor=#d5e8d4;strokeColor=#82b366;" vertex="1" parent="1">
          <mxGeometry x="345" y="480" width="80" height="40" as="geometry" />
        </mxCell>
        <mxCell id="PB4s2rMyjTqHhm2q_QeH-31" value="轻量级锁(000)" style="rounded=1;whiteSpace=wrap;html=1;fillColor=#d5e8d4;strokeColor=#82b366;" vertex="1" parent="1">
          <mxGeometry x="510" y="480" width="80" height="40" as="geometry" />
        </mxCell>
        <mxCell id="PB4s2rMyjTqHhm2q_QeH-38" style="edgeStyle=orthogonalEdgeStyle;rounded=0;orthogonalLoop=1;jettySize=auto;html=1;exitX=1;exitY=0.5;exitDx=0;exitDy=0;" edge="1" parent="1" source="PB4s2rMyjTqHhm2q_QeH-36" target="PB4s2rMyjTqHhm2q_QeH-37">
          <mxGeometry relative="1" as="geometry" />
        </mxCell>
        <mxCell id="PB4s2rMyjTqHhm2q_QeH-40" value="New" style="edgeLabel;html=1;align=center;verticalAlign=middle;resizable=0;points=[];" vertex="1" connectable="0" parent="PB4s2rMyjTqHhm2q_QeH-38">
          <mxGeometry x="0.0286" y="3" relative="1" as="geometry">
            <mxPoint as="offset" />
          </mxGeometry>
        </mxCell>
        <mxCell id="PB4s2rMyjTqHhm2q_QeH-36" value="Star" style="ellipse;whiteSpace=wrap;html=1;aspect=fixed;fillColor=#d5e8d4;strokeColor=#82b366;" vertex="1" parent="1">
          <mxGeometry x="30" y="710" width="60" height="60" as="geometry" />
        </mxCell>
        <mxCell id="PB4s2rMyjTqHhm2q_QeH-44" style="edgeStyle=orthogonalEdgeStyle;rounded=0;orthogonalLoop=1;jettySize=auto;html=1;exitX=1;exitY=0.5;exitDx=0;exitDy=0;" edge="1" parent="1" source="PB4s2rMyjTqHhm2q_QeH-37" target="PB4s2rMyjTqHhm2q_QeH-43">
          <mxGeometry relative="1" as="geometry" />
        </mxCell>
        <mxCell id="PB4s2rMyjTqHhm2q_QeH-45" value="Y" style="edgeLabel;html=1;align=center;verticalAlign=middle;resizable=0;points=[];" vertex="1" connectable="0" parent="PB4s2rMyjTqHhm2q_QeH-44">
          <mxGeometry x="0.0571" y="2" relative="1" as="geometry">
            <mxPoint y="1" as="offset" />
          </mxGeometry>
        </mxCell>
        <mxCell id="PB4s2rMyjTqHhm2q_QeH-46" value="N" style="edgeStyle=orthogonalEdgeStyle;rounded=0;orthogonalLoop=1;jettySize=auto;html=1;exitX=0.5;exitY=1;exitDx=0;exitDy=0;entryX=0.5;entryY=0;entryDx=0;entryDy=0;" edge="1" parent="1" source="PB4s2rMyjTqHhm2q_QeH-37" target="PB4s2rMyjTqHhm2q_QeH-41">
          <mxGeometry relative="1" as="geometry" />
        </mxCell>
        <mxCell id="PB4s2rMyjTqHhm2q_QeH-37" value="是否栈存放" style="rhombus;whiteSpace=wrap;html=1;fillColor=#b0e3e6;strokeColor=#0e8088;" vertex="1" parent="1">
          <mxGeometry x="160" y="705" width="80" height="70" as="geometry" />
        </mxCell>
        <mxCell id="PB4s2rMyjTqHhm2q_QeH-48" value="N" style="edgeStyle=orthogonalEdgeStyle;rounded=0;orthogonalLoop=1;jettySize=auto;html=1;exitX=0.5;exitY=1;exitDx=0;exitDy=0;" edge="1" parent="1" source="PB4s2rMyjTqHhm2q_QeH-41" target="PB4s2rMyjTqHhm2q_QeH-47">
          <mxGeometry relative="1" as="geometry" />
        </mxCell>
        <mxCell id="PB4s2rMyjTqHhm2q_QeH-58" value="Y" style="edgeStyle=orthogonalEdgeStyle;rounded=0;orthogonalLoop=1;jettySize=auto;html=1;exitX=1;exitY=0.5;exitDx=0;exitDy=0;" edge="1" parent="1" source="PB4s2rMyjTqHhm2q_QeH-41" target="PB4s2rMyjTqHhm2q_QeH-49">
          <mxGeometry relative="1" as="geometry" />
        </mxCell>
        <mxCell id="PB4s2rMyjTqHhm2q_QeH-41" value="对象大小" style="rhombus;whiteSpace=wrap;html=1;fillColor=#b0e3e6;strokeColor=#0e8088;" vertex="1" parent="1">
          <mxGeometry x="170" y="820" width="60" height="60" as="geometry" />
        </mxCell>
        <mxCell id="PB4s2rMyjTqHhm2q_QeH-61" value="POP" style="edgeStyle=orthogonalEdgeStyle;rounded=0;orthogonalLoop=1;jettySize=auto;html=1;exitX=1;exitY=0.5;exitDx=0;exitDy=0;entryX=0.5;entryY=0;entryDx=0;entryDy=0;" edge="1" parent="1" source="PB4s2rMyjTqHhm2q_QeH-43" target="PB4s2rMyjTqHhm2q_QeH-60">
          <mxGeometry relative="1" as="geometry" />
        </mxCell>
        <mxCell id="PB4s2rMyjTqHhm2q_QeH-43" value="栈" style="rounded=1;whiteSpace=wrap;html=1;fillColor=#ffe6cc;strokeColor=#d79b00;" vertex="1" parent="1">
          <mxGeometry x="310" y="720" width="80" height="40" as="geometry" />
        </mxCell>
        <mxCell id="PB4s2rMyjTqHhm2q_QeH-52" value="Y" style="edgeStyle=orthogonalEdgeStyle;rounded=0;orthogonalLoop=1;jettySize=auto;html=1;exitX=1;exitY=0.5;exitDx=0;exitDy=0;" edge="1" parent="1" source="PB4s2rMyjTqHhm2q_QeH-47" target="PB4s2rMyjTqHhm2q_QeH-51">
          <mxGeometry relative="1" as="geometry" />
        </mxCell>
        <mxCell id="PB4s2rMyjTqHhm2q_QeH-53" value="N" style="edgeStyle=orthogonalEdgeStyle;rounded=0;orthogonalLoop=1;jettySize=auto;html=1;exitX=0.5;exitY=1;exitDx=0;exitDy=0;entryX=0.5;entryY=1;entryDx=0;entryDy=0;" edge="1" parent="1" source="PB4s2rMyjTqHhm2q_QeH-47" target="PB4s2rMyjTqHhm2q_QeH-51">
          <mxGeometry relative="1" as="geometry">
            <Array as="points">
              <mxPoint x="200" y="1000" />
              <mxPoint x="320" y="1000" />
            </Array>
          </mxGeometry>
        </mxCell>
        <mxCell id="PB4s2rMyjTqHhm2q_QeH-47" value="TLAB" style="rhombus;whiteSpace=wrap;html=1;fillColor=#b0e3e6;strokeColor=#0e8088;" vertex="1" parent="1">
          <mxGeometry x="170" y="930" width="60" height="60" as="geometry" />
        </mxCell>
        <mxCell id="PB4s2rMyjTqHhm2q_QeH-63" value="" style="edgeStyle=orthogonalEdgeStyle;rounded=0;orthogonalLoop=1;jettySize=auto;html=1;exitX=1;exitY=0.5;exitDx=0;exitDy=0;entryX=0.5;entryY=0;entryDx=0;entryDy=0;" edge="1" parent="1" source="PB4s2rMyjTqHhm2q_QeH-49" target="PB4s2rMyjTqHhm2q_QeH-60">
          <mxGeometry relative="1" as="geometry">
            <mxPoint x="720" y="920" as="targetPoint" />
          </mxGeometry>
        </mxCell>
        <mxCell id="PB4s2rMyjTqHhm2q_QeH-71" value="FGC" style="edgeLabel;html=1;align=center;verticalAlign=middle;resizable=0;points=[];" vertex="1" connectable="0" parent="PB4s2rMyjTqHhm2q_QeH-63">
          <mxGeometry x="-0.6857" y="1" relative="1" as="geometry">
            <mxPoint y="1" as="offset" />
          </mxGeometry>
        </mxCell>
        <mxCell id="PB4s2rMyjTqHhm2q_QeH-49" value="Old" style="rounded=1;whiteSpace=wrap;html=1;fillColor=#fad9d5;strokeColor=#ae4132;" vertex="1" parent="1">
          <mxGeometry x="530" y="830" width="80" height="40" as="geometry" />
        </mxCell>
        <mxCell id="PB4s2rMyjTqHhm2q_QeH-50" value="&lt;span style=&quot;color: rgb(51, 51, 51); font-family: Arial, sans-serif; font-size: 13px; text-align: start; background-color: rgb(255, 255, 255);&quot;&gt;Thread Local Allocation Buffer&lt;br&gt;&lt;/span&gt;线程本地分配缓冲区" style="text;html=1;align=center;verticalAlign=middle;resizable=0;points=[];autosize=1;strokeColor=none;fillColor=none;" vertex="1" parent="1">
          <mxGeometry x="100" y="1010" width="200" height="40" as="geometry" />
        </mxCell>
        <mxCell id="PB4s2rMyjTqHhm2q_QeH-65" style="edgeStyle=orthogonalEdgeStyle;rounded=0;orthogonalLoop=1;jettySize=auto;html=1;exitX=1;exitY=0.5;exitDx=0;exitDy=0;entryX=0;entryY=0.5;entryDx=0;entryDy=0;" edge="1" parent="1" source="PB4s2rMyjTqHhm2q_QeH-51" target="PB4s2rMyjTqHhm2q_QeH-56">
          <mxGeometry relative="1" as="geometry" />
        </mxCell>
        <mxCell id="PB4s2rMyjTqHhm2q_QeH-51" value="Eden" style="rounded=1;whiteSpace=wrap;html=1;fillColor=#fff2cc;strokeColor=#d6b656;" vertex="1" parent="1">
          <mxGeometry x="280" y="940" width="80" height="40" as="geometry" />
        </mxCell>
        <mxCell id="PB4s2rMyjTqHhm2q_QeH-66" style="edgeStyle=orthogonalEdgeStyle;rounded=0;orthogonalLoop=1;jettySize=auto;html=1;exitX=1;exitY=0.5;exitDx=0;exitDy=0;entryX=0;entryY=0.5;entryDx=0;entryDy=0;" edge="1" parent="1" source="PB4s2rMyjTqHhm2q_QeH-56" target="PB4s2rMyjTqHhm2q_QeH-64">
          <mxGeometry relative="1" as="geometry" />
        </mxCell>
        <mxCell id="PB4s2rMyjTqHhm2q_QeH-75" style="edgeStyle=orthogonalEdgeStyle;rounded=0;orthogonalLoop=1;jettySize=auto;html=1;exitX=0.5;exitY=1;exitDx=0;exitDy=0;entryX=0;entryY=0.5;entryDx=0;entryDy=0;" edge="1" parent="1" source="PB4s2rMyjTqHhm2q_QeH-56" target="PB4s2rMyjTqHhm2q_QeH-60">
          <mxGeometry relative="1" as="geometry" />
        </mxCell>
        <mxCell id="PB4s2rMyjTqHhm2q_QeH-76" value="Y" style="edgeLabel;html=1;align=center;verticalAlign=middle;resizable=0;points=[];" vertex="1" connectable="0" parent="PB4s2rMyjTqHhm2q_QeH-75">
          <mxGeometry x="0.2618" y="3" relative="1" as="geometry">
            <mxPoint y="1" as="offset" />
          </mxGeometry>
        </mxCell>
        <mxCell id="PB4s2rMyjTqHhm2q_QeH-56" value="GC?" style="rhombus;whiteSpace=wrap;html=1;fillColor=#b0e3e6;strokeColor=#0e8088;" vertex="1" parent="1">
          <mxGeometry x="414" y="930" width="60" height="60" as="geometry" />
        </mxCell>
        <mxCell id="PB4s2rMyjTqHhm2q_QeH-60" value="END" style="ellipse;whiteSpace=wrap;html=1;aspect=fixed;fillColor=#f8cecc;strokeColor=#b85450;" vertex="1" parent="1">
          <mxGeometry x="800" y="1070" width="60" height="60" as="geometry" />
        </mxCell>
        <mxCell id="PB4s2rMyjTqHhm2q_QeH-67" style="edgeStyle=orthogonalEdgeStyle;rounded=0;orthogonalLoop=1;jettySize=auto;html=1;exitX=0.5;exitY=0;exitDx=0;exitDy=0;entryX=0.5;entryY=0;entryDx=0;entryDy=0;" edge="1" parent="1" source="PB4s2rMyjTqHhm2q_QeH-64" target="PB4s2rMyjTqHhm2q_QeH-56">
          <mxGeometry relative="1" as="geometry" />
        </mxCell>
        <mxCell id="PB4s2rMyjTqHhm2q_QeH-69" style="edgeStyle=orthogonalEdgeStyle;rounded=0;orthogonalLoop=1;jettySize=auto;html=1;exitX=1;exitY=0.5;exitDx=0;exitDy=0;entryX=0;entryY=0.5;entryDx=0;entryDy=0;" edge="1" parent="1" source="PB4s2rMyjTqHhm2q_QeH-64" target="PB4s2rMyjTqHhm2q_QeH-68">
          <mxGeometry relative="1" as="geometry" />
        </mxCell>
        <mxCell id="PB4s2rMyjTqHhm2q_QeH-64" value="S1" style="rounded=1;whiteSpace=wrap;html=1;fillColor=#fff2cc;strokeColor=#d6b656;" vertex="1" parent="1">
          <mxGeometry x="530" y="940" width="80" height="40" as="geometry" />
        </mxCell>
        <mxCell id="PB4s2rMyjTqHhm2q_QeH-70" style="edgeStyle=orthogonalEdgeStyle;rounded=0;orthogonalLoop=1;jettySize=auto;html=1;exitX=0.5;exitY=0;exitDx=0;exitDy=0;entryX=0.5;entryY=1;entryDx=0;entryDy=0;" edge="1" parent="1" source="PB4s2rMyjTqHhm2q_QeH-68" target="PB4s2rMyjTqHhm2q_QeH-49">
          <mxGeometry relative="1" as="geometry" />
        </mxCell>
        <mxCell id="PB4s2rMyjTqHhm2q_QeH-73" style="edgeStyle=orthogonalEdgeStyle;rounded=0;orthogonalLoop=1;jettySize=auto;html=1;exitX=0.5;exitY=1;exitDx=0;exitDy=0;entryX=1;entryY=0.5;entryDx=0;entryDy=0;" edge="1" parent="1" source="PB4s2rMyjTqHhm2q_QeH-68" target="PB4s2rMyjTqHhm2q_QeH-72">
          <mxGeometry relative="1" as="geometry" />
        </mxCell>
        <mxCell id="PB4s2rMyjTqHhm2q_QeH-68" value="AGE" style="rhombus;whiteSpace=wrap;html=1;fillColor=#b0e3e6;strokeColor=#0e8088;" vertex="1" parent="1">
          <mxGeometry x="680" y="930" width="60" height="60" as="geometry" />
        </mxCell>
        <mxCell id="PB4s2rMyjTqHhm2q_QeH-74" style="edgeStyle=orthogonalEdgeStyle;rounded=0;orthogonalLoop=1;jettySize=auto;html=1;exitX=0;exitY=0.5;exitDx=0;exitDy=0;entryX=0.5;entryY=1;entryDx=0;entryDy=0;" edge="1" parent="1" source="PB4s2rMyjTqHhm2q_QeH-72" target="PB4s2rMyjTqHhm2q_QeH-56">
          <mxGeometry relative="1" as="geometry" />
        </mxCell>
        <mxCell id="PB4s2rMyjTqHhm2q_QeH-72" value="S2" style="rounded=1;whiteSpace=wrap;html=1;fillColor=#fff2cc;strokeColor=#d6b656;" vertex="1" parent="1">
          <mxGeometry x="530" y="1020" width="80" height="40" as="geometry" />
        </mxCell>
      </root>
    </mxGraphModel>
  </diagram>
</mxfile>
